<?xml version="1.0" encoding="utf-8"?>
<!-- Generator: Adobe Illustrator 22.0.0, SVG Export Plug-In . SVG Version: 6.00 Build 0)  -->
<svg version="1.1" id="f9d61bf9-0ef1-4a80-973b-f2b4c4b57253"
	 xmlns="http://www.w3.org/2000/svg" xmlns:xlink="http://www.w3.org/1999/xlink" x="0px" y="0px" viewBox="0 0 282.9 341.5"
	 style="enable-background:new 0 0 282.9 341.5;" xml:space="preserve">
<style type="text/css">
	.st0{fill:#E6E6E6;}
	.st1{fill:#FFFFFF;}
	.st2{fill:#2BB96C;}
</style>
<g>
	<title>certification</title>
	<rect x="4.6" y="3" class="st0" width="233.1" height="291.4"/>
	<rect x="20.8" y="27.5" class="st1" width="50" height="33.3"/>
	<rect x="21.2" y="92.5" class="st1" width="193.1" height="11.7"/>
	<rect x="21.2" y="123.3" class="st1" width="193.1" height="11.7"/>
	<rect x="21.2" y="154.1" class="st1" width="193.1" height="11.7"/>
	<rect x="21.2" y="184.9" class="st1" width="193.1" height="11.7"/>
	<rect x="21.2" y="215.7" class="st1" width="193.1" height="11.7"/>
	<path class="st2" d="M283.5,294c0,25.2-20.5,45.6-45.7,45.6s-45.6-20.5-45.6-45.7s20.5-45.6,45.7-45.6c15.6,0,30.2,8,38.5,21.2
		C281,276.8,283.5,285.3,283.5,294z"/>
	<path class="st1" d="M276.4,269.5l-45.1,45.1c-2.8-4.4-18.6-24.8-18.6-24.8c2-2,4.2-3.9,6.5-5.7l13.1,17.4l38.9-38.9
		C273.1,264.8,274.9,267.1,276.4,269.5z"/>
</g>
</svg>
