<?xml version="1.0" encoding="utf-8"?>
<!-- Generator: Adobe Illustrator 22.0.0, SVG Export Plug-In . SVG Version: 6.00 Build 0)  -->
<svg version="1.1" id="b098510b-f452-4b85-993b-a1bbfe267c61"
	 xmlns="http://www.w3.org/2000/svg" xmlns:xlink="http://www.w3.org/1999/xlink" x="0px" y="0px" viewBox="0 0 319 308.7"
	 style="enable-background:new 0 0 319 308.7;" xml:space="preserve">
<style type="text/css">
	.st0{fill:#2BB96C;}
</style>
<title>medicine</title>
<path class="st0" d="M231.7,5h-0.8c-29.8,0-56.2,15.8-71.4,39.1C144.3,20.8,118,5,88.1,5h-0.8C40.7,5.4,3.1,43.3,3.1,90
	c0,27.8,12.2,67.3,35.9,99.7c45.3,61.9,120.4,116,120.4,116s75.2-54.1,120.4-116c23.8-32.5,35.9-71.9,35.9-99.7
	C315.8,43.4,278.3,5.5,231.7,5z M221,194.5c-7,0-13.2-4.3-15.7-10.8h-17.8c-2.4,0-4.5-1.6-5.3-3.8l-5.5-16.5L159.4,224
	c-0.7,2.4-2.9,4-5.4,4h-0.3c-2.6-0.1-4.8-2.1-5.2-4.6l-17.9-107.5l-13.1,63.6c-0.6,2.5-2.8,4.2-5.4,4.2H87c-3.1,0.1-5.7-2.3-5.8-5.3
	c-0.1-3.1,2.3-5.7,5.3-5.8c0.2,0,0.3,0,0.5,0h20.7l18.5-85.5c0.7-3,3.8-4.9,6.8-4.1c2.2,0.5,3.9,2.4,4.2,4.6l18.3,109.6L171,143
	c0.7-2.3,2.8-4,5.2-4h0.1c2.4,0,4.5,1.5,5.3,3.8l9.9,29.8h13.6c2.9-8.8,12.4-13.6,21.2-10.7s13.6,12.4,10.7,21.2
	C234.6,189.9,228.2,194.5,221,194.5L221,194.5z"/>
</svg>
