<?xml version="1.0" encoding="utf-8"?>
<!-- Generator: Adobe Illustrator 22.0.0, SVG Export Plug-In . SVG Version: 6.00 Build 0)  -->
<svg version="1.1" id="b411f001-b16f-4358-a5a6-150c98662c8c"
	 xmlns="http://www.w3.org/2000/svg" xmlns:xlink="http://www.w3.org/1999/xlink" x="0px" y="0px" viewBox="0 0 391.2 777.1"
	 style="enable-background:new 0 0 391.2 777.1;" xml:space="preserve">
<style type="text/css">
	.st0{opacity:0.1;fill:#2BB96C;enable-background:new    ;}
	.st1{opacity:0.9;fill:#96B7FE;enable-background:new    ;}
	.st2{opacity:0.1;enable-background:new    ;}
	.st3{fill:#2BB96C;}
	.st4{opacity:0.3;fill:#2BB96C;enable-background:new    ;}
	.st5{opacity:0.2;fill:#FFFFFF;enable-background:new    ;}
</style>
<title>science</title>
<g>
	<ellipse class="st0" cx="197" cy="767.9" rx="103.8" ry="10.4"/>
	<path class="st1" d="M264.6,391.8v-191h26v-57H104.3v57h26v190.9C56.8,419.6,8.2,490.1,8.2,568.7C8.2,673.2,93,758,197.5,758
		s189.2-84.7,189.2-189.2C386.7,490.1,338.1,419.7,264.6,391.8z"/>
	<rect x="130.2" y="200.3" class="st2" width="134.3" height="2.6"/>
	<path class="st3" d="M91.5,563.7c0,0,114-2,171-30.5s89.6-3.1,86.5,14.3s-19.3,50.9-84.5,55S91.5,563.7,91.5,563.7z"/>
	<path class="st2" d="M91.5,563.7c0,0,114-2,171-30.5s89.6-3.1,86.5,14.3s-19.3,50.9-84.5,55S91.5,563.7,91.5,563.7z"/>
	<path class="st3" d="M42.7,545.4c0,0-12.2,169,147.6,172s158.8-170,158.8-170s-59,64.1-198.5,11.2
		C150.6,558.6,78.3,539.3,42.7,545.4z"/>
	<path class="st2" d="M348.5,548c-3.2,38.9-23.9,160.8-158.2,158.2C58.7,703.7,43.7,588.6,42.6,548.1
		c-0.7,21.7-0.1,166.5,147.7,169.3c159.8,3,158.8-170,158.8-170S348.9,547.6,348.5,548z"/>
	<circle class="st4" cx="191.2" cy="472.5" r="20.7"/>
	<ellipse class="st4" cx="203.1" cy="389.5" rx="12.8" ry="12.8"/>
	<circle class="st4" cx="174.4" cy="315.5" r="12.8"/>
	<path class="st5" d="M64.5,488.5c-1.1,8.7-0.9,19.7,6.9,23.8c-6.5-3.4,20.3-42.2,16.5-50.1C79.8,445.2,65.5,480.4,64.5,488.5z"/>
	<circle class="st4" cx="164.1" cy="85" r="20.7"/>
	<circle class="st4" cx="226.3" cy="49.5" r="15.4"/>
	<circle class="st4" cx="181.8" cy="8" r="8"/>
</g>
</svg>
