<?xml version="1.0" encoding="utf-8"?>
<!-- Generator: Adobe Illustrator 22.0.0, SVG Export Plug-In . SVG Version: 6.00 Build 0)  -->
<svg version="1.1" id="b411f001-b16f-4358-a5a6-150c98662c8c"
	 xmlns="http://www.w3.org/2000/svg" xmlns:xlink="http://www.w3.org/1999/xlink" x="0px" y="0px" viewBox="0 0 859.9 786.2"
	 style="enable-background:new 0 0 859.9 786.2;" xml:space="preserve">
<style type="text/css">
	.st0{opacity:0.1;fill:#2BB96C;enable-background:new    ;}
	.st1{opacity:0.9;fill:#96B7FE;enable-background:new    ;}
	.st2{opacity:0.1;enable-background:new    ;}
	.st3{fill:#2BB96C;}
	.st4{opacity:0.3;fill:#2BB96C;enable-background:new    ;}
	.st5{opacity:0.2;fill:#FFFFFF;enable-background:new    ;}
</style>
<title>science</title>
<g>
	<ellipse class="st0" cx="437.7" cy="767.9" rx="103.8" ry="10.4"/>
	<ellipse class="st0" cx="123.4" cy="763.1" rx="78.7" ry="4.9"/>
	<path class="st0" d="M263.2,34.3C292.4,8.3,338.3,2.9,380,5c131.1,6.5,249.4,69.8,351.8,141.4c37.1,25.9,73.5,53.8,97.6,89.5
		c49,72.6,34.4,173.3-33.6,233.1c-23.2,20.4-51.3,36-80.1,49.8c-51.3,24.6-106.6,44.4-164.7,50c-41.5,4-83.5,0.8-124.7-4.8
		C311.1,548.4,198,513.8,103.2,454.7c-41.6-26-80.8-58.2-97.9-100.1s-6.2-95.1,36.3-119.9c17.6-10.3,38.6-14.9,59.1-19.3
		c30.3-6.4,61-12.7,88.3-25.8c28.2-13.5,61.6-39.5,56-69.3C238.9,88.3,234,60.3,263.2,34.3z"/>
	<path class="st1" d="M505.3,391.8v-191h26v-57H345v57h26v190.9c-73.5,27.9-122.1,98.4-122.1,177c0,104.5,84.8,189.3,189.3,189.3
		s189.2-84.7,189.2-189.2C627.4,490.1,578.8,419.7,505.3,391.8z"/>
	<rect x="370.9" y="200.3" class="st2" width="134.3" height="2.6"/>
	<path class="st3" d="M332.2,563.7c0,0,114-2,171-30.5s89.6-3.1,86.5,14.3s-19.3,50.9-84.5,55S332.2,563.7,332.2,563.7z"/>
	<path class="st2" d="M332.2,563.7c0,0,114-2,171-30.5s89.6-3.1,86.5,14.3s-19.3,50.9-84.5,55S332.2,563.7,332.2,563.7z"/>
	<path class="st3" d="M283.4,545.4c0,0-12.2,169,147.6,172s158.8-170,158.8-170s-59,64.1-198.5,11.2
		C391.3,558.6,319,539.3,283.4,545.4z"/>
	<path class="st2" d="M589.2,548C586,586.9,565.3,708.8,431,706.2c-131.6-2.5-146.6-117.6-147.7-158.1
		c-0.7,21.7-0.1,166.5,147.7,169.3c159.8,3,158.8-170,158.8-170S589.6,547.6,589.2,548z"/>
	<circle class="st4" cx="431.9" cy="472.5" r="20.7"/>
	<ellipse class="st4" cx="443.9" cy="389.5" rx="12.8" ry="12.8"/>
	<circle class="st4" cx="415.1" cy="315.5" r="12.8"/>
	<path class="st5" d="M305.2,488.5c-1.1,8.7-0.9,19.7,6.9,23.8c-6.5-3.4,20.3-42.2,16.5-50.1C320.5,445.2,306.2,480.4,305.2,488.5z"
		/>
	<circle class="st4" cx="404.8" cy="85" r="20.7"/>
	<circle class="st4" cx="467" cy="49.5" r="15.4"/>
	<circle class="st4" cx="422.5" cy="8" r="8"/>
	<path class="st1" d="M208.2,263.2H40.7v49.7h25.5v387.7c-0.4,32.2,25.3,58.6,57.5,59s58.6-25.3,59-57.5c0-0.5,0-1,0-1.5V312.9h25.5
		V263.2z"/>
	<path class="st3" d="M105,400.7c0,0,41.5-14.8,53-4.3c0,0-16.8,24.7-32.3,23.7S105,400.7,105,400.7z"/>
	<path class="st2" d="M105,400.7c0,0,41.5-14.8,53-4.3c0,0-16.8,24.7-32.3,23.7S105,400.7,105,400.7z"/>
	<path class="st3" d="M158,396.5v281.4c0,19.6-15.9,35.5-35.5,35.5l0,0c-19.6,0-35.5-15.9-35.5-35.5V396.5c0,0,17.1-4.6,33.2,5.3
		S158,396.5,158,396.5z"/>
	<rect x="66.2" y="312.6" class="st2" width="116.5" height="2.3"/>
	<path class="st2" d="M122.5,696.3L122.5,696.3c-19.6,0-35.5-15.9-35.5-35.5l0,0v17.8c0,19.6,15.9,35.5,35.5,35.5l0,0
		c19.6,0,35.5-15.9,35.5-35.5v-17.8C158,680.3,142.1,696.2,122.5,696.3L122.5,696.3z"/>
	<circle class="st4" cx="122.5" cy="361.6" r="7.2"/>
	<circle class="st4" cx="146.2" cy="335.9" r="4.6"/>
	<circle class="st4" cx="113.9" cy="326.7" r="4.6"/>
	<path class="st5" d="M75.2,453.9c-1.1,8.7-0.9,19.7,6.9,23.8c-6.6-3.4,20.3-42.2,16.5-50.1C90.5,410.7,76.2,445.8,75.2,453.9z"/>
	<circle class="st4" cx="137.5" cy="214.5" r="17.6"/>
	<circle class="st4" cx="84.7" cy="184.3" r="13.1"/>
	<circle class="st4" cx="122.4" cy="149.2" r="6.8"/>
</g>
</svg>
