<?xml version="1.0" encoding="utf-8"?>
<!-- Generator: Adobe Illustrator 22.0.0, SVG Export Plug-In . SVG Version: 6.00 Build 0)  -->
<svg version="1.1" id="Layer_1" xmlns="http://www.w3.org/2000/svg" xmlns:xlink="http://www.w3.org/1999/xlink" x="0px" y="0px"
	 viewBox="0 0 250 250" style="enable-background:new 0 0 250 250;" xml:space="preserve">
<style type="text/css">
	.st0{fill:#F2F2F2;}
	.st1{fill:#3F3D56;}
	.st2{fill:#575A89;}
	.st3{fill:#2BB96C;}
</style>
<g>
	<rect x="1" y="1" class="st0" width="248" height="248"/>
	<g>
		<path class="st1" d="M125,37v22c36.5,0,66,29.5,66,66c0,17.5-7,34.3-19.3,46.7l15.6,15.6c34.4-34.4,34.4-90.1,0-124.5
			C170.7,46.3,148.3,37,125,37z"/>
		<path class="st2" d="M187.2,187.2l-15.6-15.6c-23.3,23.3-60.3,25.8-86.6,5.9l-13.3,17.6C106.8,221.7,156.1,218.3,187.2,187.2z"/>
		<path class="st3" d="M59,125c0-36.5,29.5-66,66-66V37c-48.6,0-88,39.4-88,88c0,27.5,12.9,53.4,34.8,70.1l13.3-17.5
			C68.6,165.1,59,145.6,59,125z"/>
	</g>
</g>
</svg>
