<?xml version="1.0" encoding="utf-8"?>
<!-- Generator: Adobe Illustrator 22.0.0, SVG Export Plug-In . SVG Version: 6.00 Build 0)  -->
<svg version="1.1" id="ba65d029-7b6e-4d16-9739-50ea7099b679"
	 xmlns="http://www.w3.org/2000/svg" xmlns:xlink="http://www.w3.org/1999/xlink" x="0px" y="0px" viewBox="0 0 883 618.1"
	 style="enable-background:new 0 0 883 618.1;" xml:space="preserve">
<style type="text/css">
	.st0{fill:#2F2E41;}
	.st1{fill:#FFB9B9;}
	.st2{fill:#E6E6E6;}
	.st3{fill:#2BB96C;}
	.st4{fill:#3F3D56;}
	.st5{fill:#FFFFFF;}
	.st6{fill:#9F616A;}
	.st7{fill:#9FA2B4;}
	.st8{opacity:0.2;enable-background:new    ;}
</style>
<g>
	<path class="st0" d="M739,95l-68.5,0.7c-3.2-15.9-14-57.4-4.3-68.8c0.9-8.9,8.7-15.4,17.6-14.9l0,0C694.3-4.6,712-2.1,724,8.3
		c12,4.2,16.6,11.5,15,21.5c8.9,7.8,10.6,17.3,6.6,28.1L739,95z"/>
	<path class="st1" d="M732.4,137.2l-49.4-6.8l-9.9-14.4c13.6-9,18.4-21.6,12.2-38.8l34.2-0.8c-1.6,15.3,3.4,27.1,17.5,34.2
		L732.4,137.2z"/>
	<path class="st2" d="M671.3,583l-1.9,25.8c-0.3,4.5,3.1,8.5,7.6,8.8c0.4,0,0.7,0,1.1,0l13.3-0.8c2.3-0.1,4.1-2.1,3.9-4.4
		c0-0.3-0.1-0.5-0.1-0.8l-7.4-29.5L671.3,583z"/>
	<path class="st2" d="M714.2,582.2l-7.4,29.5c-0.6,2.2,0.8,4.5,3.1,5.1c0.3,0.1,0.5,0.1,0.8,0.1l13.3,0.8c4.5,0.3,8.4-3.2,8.7-7.7
		c0-0.4,0-0.7,0-1.1l-1.9-25.8L714.2,582.2z"/>
	<polygon class="st3" points="731.6,586.6 713.7,584.8 695.9,394.2 689.1,584.2 671.5,583.6 641.9,320.5 755.2,320.5 	"/>
	<circle class="st1" cx="704.2" cy="55.1" r="34.2"/>
	<path class="st3" d="M771.9,326.6l-138.4,1.5c20.5-78.2,32.8-150.8,11.4-200.7l34.2-16.7c16.5,17.2,34.9,15.4,54.7-1.5l32.7,8.4
		C761,182.9,763.5,253.1,771.9,326.6z"/>
	<path class="st1" d="M595.5,246l85.9,34.2l19.2,5.6c3.5,1,7.2-1,8.3-4.5c0-0.1,0-0.2,0.1-0.3l0,0c0.8-3.1-0.8-6.4-3.8-7.7
		l-19.9-6.1l-60.1-35l12.5-33.1L611.5,185L595.5,246z"/>
	<path class="st3" d="M596.3,183.6c16.3,6.4,29.3,17.3,39.5,31.9l31.9-46.4l-22.8-41.8L596.3,183.6z"/>
	<path class="st0" d="M742.8,49.6C728.9,46,715.3,45.5,702,50c-8.5,4.1-18.6,3.7-29.9,0.3v-34l61,1.6L742.8,49.6z"/>
	<path class="st4" d="M681.1,206.1c-5.6,0-10.1,4.5-10.1,10.1l4,83.7c0,5.6,4.5,10.1,10.1,10.1h45.7c5.6,0,10.1-4.5,10.1-10.1
		l4-83.7c0-5.6-4.5-10.1-10.1-10.1L681.1,206.1L681.1,206.1z"/>
	<path class="st1" d="M810.9,239.6L736,269.5l-5.7,2.3c-0.2,0.1-0.4,0.1-0.5,0.2l-18.9,5.6c-2.4,0.7-5.8-2.5-7.7-4.8
		c-2-2.2-2.1-5.6-0.2-7.9c0.3-0.3,0.5-0.6,0.9-0.8c0.7-0.6,1.6-0.9,2.5-1.1l18.9-3.7c0.7-0.1,1.3-0.4,1.9-0.7l8.8-5.1l45.8-26.7
		c2.6-1.5,3.8-4.7,2.7-7.6l-8.7-23c-1.1-2.9,0.1-6.2,2.9-7.7l14.5-7.8c3-1.6,6.8-0.5,8.4,2.5c0.2,0.4,0.4,0.9,0.5,1.4l12.6,47.9
		C815.4,235.3,813.8,238.5,810.9,239.6z"/>
	<path class="st3" d="M815.2,175.3c-16.3,6.4-29.3,17.3-39.5,31.9l-31.9-46.4l22.8-43.3L815.2,175.3z"/>
	<path class="st5" d="M727,85.6c-15,6.2-30.7,6-47,0c4.8-8.1-2.4-14.5-6-22.7l61-1.8C730.3,68.2,723.5,76.6,727,85.6z"/>
	<polygon class="st5" points="734.4,62.5 733.6,61.8 734.6,60.8 740.6,53.8 741.4,54.4 735.4,61.4 	"/>
	<rect x="672" y="57.2" transform="matrix(0.6402 -0.7682 0.7682 0.6402 195.0135 538.6111)" class="st5" width="1" height="7.8"/>
	<rect x="721.5" y="76.3" transform="matrix(0.537 -0.8436 0.8436 0.537 273.7972 652.496)" class="st5" width="19.6" height="1"/>
	<rect x="675.3" y="67.1" transform="matrix(0.8437 -0.5369 0.5369 0.8437 64.3581 374.822)" class="st5" width="1" height="19.6"/>
	<path class="st5" d="M738,251.8v18.1l-6.3,2.5c-0.2,0.1-0.4,0.1-0.6,0.2l-21.1,6.2c-2.7,0.8-6.4-2.8-8.6-5.4
		c-2.2-2.5-2.3-6.3-0.2-8.9c0.3-0.3,0.6-0.6,1-0.9c0.8-0.6,1.8-1.1,2.8-1.2l21.1-4.2c0.8-0.1,1.5-0.4,2.2-0.8L738,251.8z"/>
	<path class="st4" d="M747.1,187.2h-3.6c0-51.1-10.5-86.7-20.8-86.7l-0.9-3.6c9.2,0,15.1,14.8,18.4,27.3
		C744.7,141,747.1,163.4,747.1,187.2z"/>
	<path class="st4" d="M664,174.6h-3.6c0-46.8,10.6-75.9,26.2-75.9l-0.9,3.6C674.9,102.3,664,124.6,664,174.6z"/>
	<circle class="st4" cx="745.3" cy="188.1" r="9"/>
	<path class="st4" d="M649.6,196.2H646c0-13,7.3-23.5,16.3-23.5v3.6C655.2,176.4,649.6,185.3,649.6,196.2z"/>
	<path class="st4" d="M678.5,196.2h-3.6c0-11-5.7-19.9-12.6-19.9v-3.6C671.2,172.7,678.5,183.3,678.5,196.2z"/>
	<circle class="st4" cx="676.7" cy="197.1" r="3.6"/>
	<circle class="st4" cx="647.8" cy="197.1" r="3.6"/>
	<path class="st0" d="M212.3,75.7l-63.5,10.7c-3.2,0.6-6.4-1.4-7.3-4.6c-4.6-16.5-14.2-38.1-4.9-49c1-9.5,9.2-16.5,18.8-15.9l0,0
		c11.3-17.7,30.2-15.1,43-4c12.8,4.4,17.7,12.3,16,23c5.5,4.9,8.5,10.3,9.1,16.3c0.6,6.8-1.8,13.4-6.5,18.4L212.3,75.7z"/>
	<path class="st6" d="M202.4,125.7l-49.2-2.9c4.8-11.1,6.7-21.7,4.8-31.8h36.7C194.6,98.7,198.5,112.1,202.4,125.7z"/>
	<path class="st2" d="M143.2,580.3l-2,27.6c-0.4,4.8,3.3,9,8.1,9.4c0.4,0,0.8,0,1.2,0l14.2-0.9c2.5-0.2,4.3-2.3,4.2-4.7
		c0-0.3-0.1-0.5-0.1-0.8l-7.9-31.5L143.2,580.3z"/>
	<path class="st2" d="M189.1,579.4l-7.9,31.5c-0.6,2.4,0.9,4.8,3.3,5.4c0.3,0.1,0.5,0.1,0.8,0.1l14.2,0.9c4.8,0.3,9-3.4,9.3-8.2
		c0-0.4,0-0.8,0-1.2l-2-27.6L189.1,579.4z"/>
	<polygon class="st3" points="207.6,584.1 188.5,582.2 169.5,378.7 162.3,581.5 143.5,580.9 111.8,299.9 232.8,299.9 	"/>
	<circle class="st6" cx="177.3" cy="66.1" r="36.5"/>
	<path class="st0" d="M218.5,48.7c-14.8-2.6-29.4-2.9-43.6,0.3c-9,3-19.9,2.7-31.9,0.2V24.6l65.1,1.2L218.5,48.7z"/>
	<path class="st5" d="M201.6,95.4c-16,6.6-32.7,6.4-50.2,0c5.1-8.7-2.5-15.5-6.4-24.2l65.1-1.9C205.2,76.9,197.8,85.9,201.6,95.4z"
		/>
	<rect x="142.9" y="65.2" transform="matrix(0.6402 -0.7682 0.7682 0.6402 -1.6483 135.0835)" class="st5" width="1" height="8.3"/>
	<rect x="195.7" y="85.6" transform="matrix(0.537 -0.8436 0.8436 0.537 22.8003 213.7858)" class="st5" width="20.9" height="1"/>
	
		<rect x="146.4" y="75.7" transform="matrix(0.8437 -0.5369 0.5369 0.8437 -23.2797 92.3522)" class="st5" width="1" height="20.9"/>
	<path class="st3" d="M107.9,232.7l-28-17.4l23.9-69.9c2.7-7.2,7.8-13.3,14.4-17.1l8-4.7l0.7,70.5L107.9,232.7z"/>
	<path class="st3" d="M228.8,266.7l-4.1-35.5c-0.2-18.7,3-36.8,10.6-53.5l3.9-52.1l-42.4-17.4c-0.1,0.9-0.2,1.7-0.4,2.6l-19.9,9.9
		l-19.4-4.4l0.1-6.2l-38.6,17.4c12.8,59.3,5.8,120.9-16.1,193.7l50.8,13.9l0.4-24.4l45.3-3.2c0.5,7.9,0.8,15.7,1.1,23.3
		c25.6,9.4,26.4,9.3,49.7-4.2C240.4,307.1,233.1,286.8,228.8,266.7z"/>
	<polygon class="st3" points="294.1,224.1 268,215.4 226.3,166.9 239.1,125.7 296.9,206.7 	"/>
	<path class="st2" d="M212.4,261.6c0.9,3.9,4.8,6.3,8.7,5.5l22.1-5L240,248l-22.1,5C214,253.8,211.5,257.7,212.4,261.6L212.4,261.6z
		"/>
	<path class="st3" d="M232.3,245.3l12.5,23.2c21.1-5.9,39.4-24.4,56.9-46.3l-4.8-15.4l-29.9,7.7L232.3,245.3z"/>
	<polygon class="st2" points="68.8,172.7 92.9,177 147.9,255.2 118.7,248.3 	"/>
	<path class="st4" d="M64.5,171.7c-1.1,0-2,0.9-2,2.1c0,0.4,0.1,0.8,0.3,1.1l51.4,78c0.3,0.4,0.7,0.7,1.2,0.9l23.9,5.6
		c1.1,0.3,2.2-0.4,2.5-1.5c0.1-0.6,0-1.2-0.3-1.6L85,176c-0.3-0.4-0.8-0.7-1.3-0.8l-18.9-3.4C64.8,171.7,64.6,171.7,64.5,171.7z"/>
	<path class="st2" d="M96.6,227.5l1.4,14.4l22.6-2.2c4-0.4,6.9-3.9,6.5-7.9s-3.9-6.9-7.9-6.5L96.6,227.5z"/>
	<path class="st3" d="M77,225.8c0.1,10.2,8.4,18.5,18.6,18.5h3.7l2.7-22.5l-22.4-8L77,225.8z"/>
	<polygon class="st5" points="208.4,71.8 207.7,71.1 208.8,70 215.1,62.6 215.9,63.2 209.5,70.7 	"/>
	<rect x="-3" y="616.1" class="st7" width="888" height="2"/>
	<path class="st2" d="M336,615.1h210V360.4c0-13.5-13.3-24.5-29.6-24.5H365.6c-16.3,0-29.6,11-29.6,24.5V615.1z"/>
	<path class="st5" d="M352,604.6h178V388.7c0-11.4-11.3-20.7-25.1-20.7H377.1c-13.8,0-25.1,9.3-25.1,20.7V604.6z"/>
	<path class="st4" d="M334.4,316.1c-5.2,0-9.4,3.5-9.4,7.8v22.4c0,4.3,4.2,7.8,9.4,7.8h213.2c5.2,0,9.4-3.5,9.4-7.8v-22.4
		c0-4.3-4.2-7.8-9.4-7.8H334.4z"/>
	<path class="st4" d="M378.2,576.9c-5.1,0-9.2,4.1-9.2,9.2l0,0c0,5.1,4.1,9.2,9.2,9.2h17.2v-18.4H378.2z"/>
	<path class="st3" d="M411.2,576.9h-16.7v18.4h16.7c5.1,0,9.2-4.1,9.2-9.2l0,0C420.4,581,416.3,576.9,411.2,576.9z"/>
	<path class="st8" d="M417.2,579.1c1.5,1.7,2.3,3.8,2.3,6l0,0c0,5.1-4.1,9.2-9.2,9.2h-15.8v0.9h16.7c5.1,0,9.2-4.1,9.2-9.2l0,0
		C420.4,583.4,419.2,580.9,417.2,579.1z"/>
	<path class="st4" d="M455.9,438.4c-3.5-3.7-9.3-3.9-13-0.4l0,0c-3.7,3.5-3.9,9.3-0.4,13l11.8,12.5l13.4-12.6L455.9,438.4z"/>
	<path class="st3" d="M478.5,462.4L467,450.2l-13.4,12.6l11.5,12.2c3.5,3.7,9.3,3.9,13,0.4l0,0C481.8,471.9,482,466.1,478.5,462.4z"
		/>
	<path class="st8" d="M481,468.3c-0.2,2.2-1.2,4.2-2.8,5.8l0,0c-3.7,3.5-9.5,3.3-13-0.4l-10.8-11.5l-0.7,0.6l11.5,12.2
		c3.5,3.7,9.3,3.9,13,0.4l0,0C480.1,473.6,481.1,471,481,468.3z"/>
	<path class="st4" d="M406.9,467.4c-3.5-3.7-9.3-3.9-13-0.4l0,0c-3.7,3.5-3.9,9.3-0.4,13l11.8,12.5l13.4-12.6L406.9,467.4z"/>
	<path class="st3" d="M429.5,491.4L418,479.2l-13.4,12.6l11.5,12.2c3.5,3.7,9.3,3.9,13,0.4l0,0C432.8,500.9,433,495.1,429.5,491.4z"
		/>
	<path class="st8" d="M432,497.3c-0.2,2.2-1.2,4.2-2.8,5.8l0,0c-3.7,3.5-9.5,3.3-13-0.4l-10.8-11.5l-0.7,0.6l11.5,12.2
		c3.5,3.7,9.3,3.9,13,0.4l0,0C431.1,502.6,432.1,500,432,497.3z"/>
	<path class="st4" d="M455.9,494.4c-3.5-3.7-9.3-3.9-13-0.4l0,0c-3.7,3.5-3.9,9.3-0.4,13l11.8,12.5l13.4-12.6L455.9,494.4z"/>
	<path class="st3" d="M478.5,518.4L467,506.2l-13.4,12.6l11.5,12.2c3.5,3.7,9.3,3.9,13,0.4l0,0C481.8,527.9,482,522.1,478.5,518.4z"
		/>
	<path class="st8" d="M481,524.3c-0.2,2.2-1.2,4.2-2.8,5.8l0,0c-3.7,3.5-9.5,3.3-13-0.4l-10.8-11.5l-0.7,0.6l11.5,12.2
		c3.5,3.7,9.3,3.9,13,0.4l0,0C480.1,529.6,481.1,527,481,524.3z"/>
	<path class="st4" d="M485.8,551.8c3.6-3.5,3.7-9.3,0.2-13l0,0c-3.5-3.6-9.3-3.7-13-0.2l-12.4,12l12.8,13.2L485.8,551.8z"/>
	<path class="st3" d="M462,574.8l12-11.6L461.2,550l-12,11.6c-3.6,3.5-3.7,9.3-0.2,13l0,0C452.5,578.2,458.3,578.3,462,574.8z"/>
	<path class="st8" d="M456.1,577.3c-2.2-0.2-4.3-1.2-5.8-2.8l0,0c-3.5-3.7-3.4-9.5,0.2-13l11.4-11l-0.7-0.7l-12,11.6
		c-3.6,3.5-3.7,9.3-0.2,13l0,0C450.9,576.5,453.5,577.5,456.1,577.3z"/>
	<path class="st4" d="M419.8,522.8c3.6-3.5,3.7-9.3,0.2-13l0,0c-3.5-3.6-9.3-3.7-13-0.2l-12.4,12l12.8,13.2L419.8,522.8z"/>
	<path class="st3" d="M396,545.8l12-11.6L395.2,521l-12,11.6c-3.6,3.5-3.7,9.3-0.2,13l0,0C386.5,549.2,392.3,549.3,396,545.8z"/>
	<path class="st8" d="M390.1,548.3c-2.2-0.2-4.3-1.2-5.8-2.8l0,0c-3.5-3.7-3.4-9.5,0.2-13l11.4-11l-0.7-0.7l-12,11.6
		c-3.6,3.5-3.7,9.3-0.2,13l0,0C384.9,547.5,387.5,548.5,390.1,548.3z"/>
	<path class="st4" d="M513.8,487.8c3.6-3.5,3.7-9.3,0.2-13l0,0c-3.5-3.6-9.3-3.7-13-0.2l-12.4,12l12.8,13.2L513.8,487.8z"/>
	<path class="st3" d="M490,510.8l12-11.6L489.2,486l-12,11.6c-3.6,3.5-3.7,9.3-0.2,13l0,0C480.5,514.2,486.3,514.3,490,510.8z"/>
	<path class="st8" d="M484.1,513.3c-2.2-0.2-4.3-1.2-5.8-2.8l0,0c-3.5-3.7-3.4-9.5,0.2-13l11.4-11l-0.7-0.7l-12,11.6
		c-3.6,3.5-3.7,9.3-0.2,13l0,0C478.9,512.5,481.5,513.5,484.1,513.3z"/>
	<path class="st4" d="M492.9,560.4c-3.5-3.7-9.3-3.9-13-0.4l0,0c-3.7,3.5-3.9,9.3-0.4,13l11.8,12.5l13.4-12.6L492.9,560.4z"/>
	<path class="st3" d="M515.5,584.4L504,572.2l-13.4,12.6l11.5,12.2c3.5,3.7,9.3,3.9,13,0.4l0,0C518.8,593.9,519,588.1,515.5,584.4z"
		/>
	<path class="st8" d="M518,590.3c-0.2,2.2-1.2,4.2-2.8,5.8l0,0c-3.7,3.5-9.5,3.3-13-0.4l-10.8-11.5l-0.7,0.6l11.5,12.2
		c3.5,3.7,9.3,3.9,13,0.4l0,0C517.1,595.6,518.1,593,518,590.3z"/>
	<path class="st4" d="M427.9,559.4c-3.5-3.7-9.3-3.9-13-0.4l0,0c-3.7,3.5-3.9,9.3-0.4,13l11.8,12.5l13.4-12.6L427.9,559.4z"/>
	<path class="st3" d="M450.5,583.4L439,571.2l-13.4,12.6l11.5,12.2c3.5,3.7,9.3,3.9,13,0.4l0,0C453.8,592.9,454,587.1,450.5,583.4z"
		/>
	<path class="st8" d="M453,589.3c-0.2,2.2-1.2,4.2-2.8,5.8l0,0c-3.7,3.5-9.5,3.3-13-0.4l-10.8-11.5l-0.7,0.6l11.5,12.2
		c3.5,3.7,9.3,3.9,13,0.4l0,0C452.1,594.6,453.1,592,453,589.3z"/>
	<path class="st3" d="M446.2,526.4c0,6.3-4.4,11.7-10.6,13c-1.8,0.4-3.6,0.4-5.3,0c-7.2-1.5-11.8-8.5-10.3-15.7
		c1.1-5.2,5.1-9.3,10.3-10.3c1.8-0.4,3.6-0.4,5.3,0C441.7,514.6,446.2,520.1,446.2,526.4z"/>
	<path class="st8" d="M435.5,513.4v26c-1.8,0.4-3.6,0.4-5.3,0v-26C432,513,433.8,513,435.5,513.4z"/>
	<path class="st3" d="M452.2,473.4c0,6.3-4.4,11.7-10.6,13c-1.8,0.4-3.6,0.4-5.3,0c-7.2-1.5-11.8-8.5-10.3-15.7
		c1.1-5.2,5.1-9.3,10.3-10.3c1.8-0.4,3.6-0.4,5.3,0C447.7,461.6,452.2,467.1,452.2,473.4z"/>
	<path class="st8" d="M441.5,460.4v26c-1.8,0.4-3.6,0.4-5.3,0v-26C438,460,439.8,460,441.5,460.4z"/>
	<path class="st3" d="M452.2,549.4c0,6.3-4.4,11.7-10.6,13c-1.8,0.4-3.6,0.4-5.3,0c-7.2-1.5-11.8-8.5-10.3-15.7
		c1.1-5.2,5.1-9.3,10.3-10.3c1.8-0.4,3.6-0.4,5.3,0C447.7,537.6,452.2,543.1,452.2,549.4z"/>
	<path class="st8" d="M441.5,536.4v26c-1.8,0.4-3.6,0.4-5.3,0v-26C438,536,439.8,536,441.5,536.4z"/>
	<path class="st3" d="M485.2,586.4c0,6.3-4.4,11.7-10.6,13c-1.8,0.4-3.6,0.4-5.3,0c-7.2-1.5-11.8-8.5-10.3-15.7
		c1.1-5.2,5.1-9.3,10.3-10.3c1.8-0.4,3.6-0.4,5.3,0C480.7,574.6,485.2,580.1,485.2,586.4z"/>
	<path class="st8" d="M474.5,573.4v26c-1.8,0.4-3.6,0.4-5.3,0v-26C471,573,472.8,573,474.5,573.4z"/>
	<path class="st3" d="M514.3,518.3c4.5,4.4,5.4,11.3,2,16.7c-1,1.5-2.2,2.8-3.7,3.8c-6,4.2-14.3,2.6-18.4-3.4
		c-3-4.4-3.1-10.1-0.3-14.6c1-1.5,2.2-2.8,3.7-3.8C502.8,513.3,509.8,513.9,514.3,518.3z"/>
	<path class="st8" d="M497.6,516.9l18.7,18c-1,1.5-2.2,2.8-3.7,3.8l-18.7-18C494.9,519.2,496.1,517.9,497.6,516.9z"/>
	<path class="st3" d="M518.3,547.3c4.5,4.4,5.4,11.3,2,16.7c-1,1.5-2.2,2.8-3.7,3.8c-6,4.2-14.3,2.6-18.4-3.4
		c-3-4.4-3.1-10.1-0.3-14.6c1-1.5,2.2-2.8,3.7-3.8C506.8,542.3,513.8,542.9,518.3,547.3z"/>
	<path class="st8" d="M501.6,545.9l18.7,18c-1,1.5-2.2,2.8-3.7,3.8l-18.7-18C498.9,548.2,500.1,546.9,501.6,545.9z"/>
	<path class="st3" d="M399.3,554.3c4.5,4.4,5.4,11.3,2,16.7c-1,1.5-2.2,2.8-3.7,3.8c-6,4.2-14.3,2.6-18.4-3.4
		c-3-4.4-3.1-10.1-0.3-14.6c1-1.5,2.2-2.8,3.7-3.8C387.8,549.3,394.8,549.9,399.3,554.3z"/>
	<path class="st8" d="M382.6,552.9l18.7,18c-1,1.5-2.2,2.8-3.7,3.8l-18.7-18C379.9,555.2,381.1,553.9,382.6,552.9z"/>
	<rect x="351.5" y="316.1" class="st8" width="5" height="37"/>
	<rect x="380.5" y="316.1" class="st8" width="5" height="37"/>
	<rect x="409.5" y="316.1" class="st8" width="5" height="37"/>
	<rect x="438.5" y="316.1" class="st8" width="5" height="37"/>
	<rect x="467.5" y="316.1" class="st8" width="5" height="37"/>
	<rect x="496.5" y="316.1" class="st8" width="5" height="37"/>
	<rect x="525.5" y="316.1" class="st8" width="5" height="37"/>
</g>
</svg>
